{
	"asset":{
		"generator":"Khronos glTF Blender I/O v3.5.30",
		"version":"2.0"
	},
	"scene":0,
	"scenes":[
		{
			"name":"Scene",
			"nodes":[
				0
			]
		}
	],
	"nodes":[
		{
			"mesh":0,
			"name":"Bulbasaur",
			"scale":[
				10,
				10,
				10
			],
			"translation":[
				0,
				0,
				0
			]
		}
	],
	"materials":[
		{
			"doubleSided":true,
			"name":"mat2.001",
			"pbrMetallicRoughness":{
				"baseColorTexture":{
					"index":0
				},
				"metallicFactor":0,
				"roughnessFactor":0.5
			}
		},
		{
			"doubleSided":true,
			"name":"mat1.001",
			"pbrMetallicRoughness":{
				"baseColorTexture":{
					"index":1
				},
				"metallicFactor":0,
				"roughnessFactor":0.5
			}
		},
		{
			"doubleSided":true,
			"name":"Material.001",
			"pbrMetallicRoughness":{
				"baseColorFactor":[
					0.800000011920929,
					0.800000011920929,
					0.800000011920929,
					1
				],
				"metallicFactor":0,
				"roughnessFactor":0.4000000059604645
			}
		}
	],
	"meshes":[
		{
			"name":"G-__555564.001",
			"primitives":[
				{
					"attributes":{
						"POSITION":0,
						"TEXCOORD_0":1,
						"NORMAL":2
					},
					"indices":3,
					"material":0
				},
				{
					"attributes":{
						"POSITION":4,
						"TEXCOORD_0":5,
						"NORMAL":6
					},
					"indices":7,
					"material":1
				},
				{
					"attributes":{
						"POSITION":8,
						"TEXCOORD_0":9,
						"NORMAL":10
					},
					"indices":11,
					"material":2
				}
			]
		}
	],
	"textures":[
		{
			"sampler":0,
			"source":0
		},
		{
			"sampler":0,
			"source":1
		}
	],
	"images":[
		{
			"bufferView":4,
			"mimeType":"image/png",
			"name":"FushigiE"
		},
		{
			"bufferView":9,
			"mimeType":"image/png",
			"name":"FushigiD"
		}
	],
	"accessors":[
		{
			"bufferView":0,
			"componentType":5126,
			"count":16,
			"max":[
				0.053913988173007965,
				0.01947426050901413,
				0.11180442571640015
			],
			"min":[
				-0.053913988173007965,
				-0.019021213054656982,
				0.07907391339540482
			],
			"type":"VEC3"
		},
		{
			"bufferView":1,
			"componentType":5126,
			"count":16,
			"type":"VEC2"
		},
		{
			"bufferView":2,
			"componentType":5126,
			"count":16,
			"type":"VEC3"
		},
		{
			"bufferView":3,
			"componentType":5123,
			"count":42,
			"type":"SCALAR"
		},
		{
			"bufferView":5,
			"componentType":5126,
			"count":1166,
			"max":[
				0.07073543965816498,
				0.10363871604204178,
				0.12137987464666367
			],
			"min":[
				-0.07073543965816498,
				-0.07793501764535904,
				-0.09339474886655807
			],
			"type":"VEC3"
		},
		{
			"bufferView":6,
			"componentType":5126,
			"count":1166,
			"type":"VEC2"
		},
		{
			"bufferView":7,
			"componentType":5126,
			"count":1166,
			"type":"VEC3"
		},
		{
			"bufferView":8,
			"componentType":5123,
			"count":4692,
			"type":"SCALAR"
		},
		{
			"bufferView":10,
			"componentType":5126,
			"count":6,
			"max":[
				0.039744146168231964,
				-0.023436449468135834,
				0.1036052331328392
			],
			"min":[
				-0.039744168519973755,
				-0.03156780079007149,
				0.09932395815849304
			],
			"type":"VEC3"
		},
		{
			"bufferView":11,
			"componentType":5126,
			"count":6,
			"type":"VEC2"
		},
		{
			"bufferView":12,
			"componentType":5126,
			"count":6,
			"type":"VEC3"
		},
		{
			"bufferView":13,
			"componentType":5123,
			"count":6,
			"type":"SCALAR"
		}
	],
	"bufferViews":[
		{
			"buffer":0,
			"byteLength":192,
			"byteOffset":0,
			"target":34962
		},
		{
			"buffer":0,
			"byteLength":128,
			"byteOffset":192,
			"target":34962
		},
		{
			"buffer":0,
			"byteLength":192,
			"byteOffset":320,
			"target":34962
		},
		{
			"buffer":0,
			"byteLength":84,
			"byteOffset":512,
			"target":34963
		},
		{
			"buffer":0,
			"byteLength":16259,
			"byteOffset":596
		},
		{
			"buffer":0,
			"byteLength":13992,
			"byteOffset":16856,
			"target":34962
		},
		{
			"buffer":0,
			"byteLength":9328,
			"byteOffset":30848,
			"target":34962
		},
		{
			"buffer":0,
			"byteLength":13992,
			"byteOffset":40176,
			"target":34962
		},
		{
			"buffer":0,
			"byteLength":9384,
			"byteOffset":54168,
			"target":34963
		},
		{
			"buffer":0,
			"byteLength":40593,
			"byteOffset":63552
		},
		{
			"buffer":0,
			"byteLength":72,
			"byteOffset":104148,
			"target":34962
		},
		{
			"buffer":0,
			"byteLength":48,
			"byteOffset":104220,
			"target":34962
		},
		{
			"buffer":0,
			"byteLength":72,
			"byteOffset":104268,
			"target":34962
		},
		{
			"buffer":0,
			"byteLength":12,
			"byteOffset":104340,
			"target":34963
		}
	],
	"samplers":[
		{
			"magFilter":9729,
			"minFilter":9987
		}
	],
	"buffers":[
		{
			"byteLength":104352,
			"uri":"data:application/octet-stream;base64,"
		}
	]
}
