{
	"asset":{
		"generator":"Khronos glTF Blender I/O v3.5.30",
		"version":"2.0"
	},
	"scene":0,
	"scenes":[
		{
			"name":"Scene",
			"nodes":[
				0
			]
		}
	],
	"nodes":[
		{
			"mesh":0,
			"name":"Charmander",
			"rotation":[
				0.08454744517803192,
				0,
				0,
				0.9964195489883423
			],
			"scale":[
				2,
				2,
				2
			],
			"translation":[
				0,
				0,
				0
			]
		}
	],
	"materials":[
		{
			"doubleSided":true,
			"name":"[Color C04]",
			"pbrMetallicRoughness":{
				"baseColorFactor":[
					1,
					0.3250369727611542,
					0.02775527909398079,
					1
				],
				"metallicFactor":0,
				"roughnessFactor":0.4000000059604645
			}
		},
		{
			"doubleSided":true,
			"name":"[0033_NavajoWhite]",
			"pbrMetallicRoughness":{
				"baseColorFactor":[
					1,
					0.7372047901153564,
					0.4259052872657776,
					1
				],
				"metallicFactor":0,
				"roughnessFactor":0.4000000059604645
			}
		},
		{
			"doubleSided":true,
			"name":"[Color D04]",
			"pbrMetallicRoughness":{
				"baseColorFactor":[
					1,
					0.6120656132698059,
					0.02775527909398079,
					1
				],
				"metallicFactor":0,
				"roughnessFactor":0.4000000059604645
			}
		},
		{
			"doubleSided":true,
			"name":"[Color A05]",
			"pbrMetallicRoughness":{
				"baseColorFactor":[
					1,
					0,
					0,
					1
				],
				"metallicFactor":0,
				"roughnessFactor":0.4000000059604645
			}
		},
		{
			"doubleSided":true,
			"name":"Material",
			"pbrMetallicRoughness":{
				"baseColorFactor":[
					0.800000011920929,
					0.800000011920929,
					0.800000011920929,
					1
				],
				"metallicFactor":0,
				"roughnessFactor":0.4000000059604645
			}
		},
		{
			"doubleSided":true,
			"name":"[Color L02]",
			"pbrMetallicRoughness":{
				"baseColorFactor":[
					1,
					0.3250369727611542,
					0.6120656132698059,
					1
				],
				"metallicFactor":0,
				"roughnessFactor":0.4000000059604645
			}
		},
		{
			"doubleSided":true,
			"name":"[Color M09]",
			"pbrMetallicRoughness":{
				"baseColorFactor":[
					0,
					0,
					0,
					1
				],
				"metallicFactor":0,
				"roughnessFactor":0.4000000059604645
			}
		},
		{
			"doubleSided":true,
			"name":"[Color M08]",
			"pbrMetallicRoughness":{
				"baseColorFactor":[
					0.00902149174362421,
					0.00902149174362421,
					0.00902149174362421,
					1
				],
				"metallicFactor":0,
				"roughnessFactor":0.4000000059604645
			}
		},
		{
			"doubleSided":true,
			"name":"[Color M00]",
			"pbrMetallicRoughness":{
				"baseColorFactor":[
					1,
					1,
					1,
					1
				],
				"metallicFactor":0,
				"roughnessFactor":0.4000000059604645
			}
		}
	],
	"meshes":[
		{
			"name":"Component#1",
			"primitives":[
				{
					"attributes":{
						"POSITION":0,
						"NORMAL":1
					},
					"indices":2,
					"material":0
				},
				{
					"attributes":{
						"POSITION":3,
						"NORMAL":4
					},
					"indices":5,
					"material":1
				},
				{
					"attributes":{
						"POSITION":6,
						"NORMAL":7
					},
					"indices":8,
					"material":2
				},
				{
					"attributes":{
						"POSITION":9,
						"NORMAL":10
					},
					"indices":11,
					"material":3
				},
				{
					"attributes":{
						"POSITION":12,
						"NORMAL":13
					},
					"indices":14,
					"material":4
				},
				{
					"attributes":{
						"POSITION":15,
						"NORMAL":16
					},
					"indices":17,
					"material":5
				},
				{
					"attributes":{
						"POSITION":18,
						"NORMAL":19
					},
					"indices":20,
					"material":6
				},
				{
					"attributes":{
						"POSITION":21,
						"NORMAL":22
					},
					"indices":23,
					"material":7
				},
				{
					"attributes":{
						"POSITION":24,
						"NORMAL":25
					},
					"indices":26,
					"material":8
				}
			]
		}
	],
	"accessors":[
		{
			"bufferView":0,
			"componentType":5126,
			"count":10541,
			"max":[
				0.38975250720977783,
				0.5946997404098511,
				0.35020971298217773
			],
			"min":[
				-0.3969610333442688,
				-0.5027297139167786,
				-0.9051758646965027
			],
			"type":"VEC3"
		},
		{
			"bufferView":1,
			"componentType":5126,
			"count":10541,
			"type":"VEC3"
		},
		{
			"bufferView":2,
			"componentType":5123,
			"count":60216,
			"type":"SCALAR"
		},
		{
			"bufferView":3,
			"componentType":5126,
			"count":1429,
			"max":[
				0.24132630228996277,
				0.14326724410057068,
				0.3159027099609375
			],
			"min":[
				-0.315251886844635,
				-0.502396821975708,
				-0.9020475149154663
			],
			"type":"VEC3"
		},
		{
			"bufferView":4,
			"componentType":5126,
			"count":1429,
			"type":"VEC3"
		},
		{
			"bufferView":5,
			"componentType":5123,
			"count":7746,
			"type":"SCALAR"
		},
		{
			"bufferView":6,
			"componentType":5126,
			"count":159,
			"max":[
				0.07582196593284607,
				0.33609768748283386,
				-0.8152300119400024
			],
			"min":[
				-0.038138583302497864,
				0.05557861924171448,
				-1.017998218536377
			],
			"type":"VEC3"
		},
		{
			"bufferView":7,
			"componentType":5126,
			"count":159,
			"type":"VEC3"
		},
		{
			"bufferView":8,
			"componentType":5123,
			"count":423,
			"type":"SCALAR"
		},
		{
			"bufferView":9,
			"componentType":5126,
			"count":139,
			"max":[
				0.0952390730381012,
				0.3700580894947052,
				-0.8455179929733276
			],
			"min":[
				-0.06438617408275604,
				0.06466308236122131,
				-0.9931871294975281
			],
			"type":"VEC3"
		},
		{
			"bufferView":10,
			"componentType":5126,
			"count":139,
			"type":"VEC3"
		},
		{
			"bufferView":11,
			"componentType":5123,
			"count":351,
			"type":"SCALAR"
		},
		{
			"bufferView":12,
			"componentType":5126,
			"count":2376,
			"max":[
				0.2642552852630615,
				0.47954490780830383,
				0.34620875120162964
			],
			"min":[
				-0.34589684009552,
				-0.4717036187648773,
				-0.07766848802566528
			],
			"type":"VEC3"
		},
		{
			"bufferView":13,
			"componentType":5126,
			"count":2376,
			"type":"VEC3"
		},
		{
			"bufferView":14,
			"componentType":5123,
			"count":12951,
			"type":"SCALAR"
		},
		{
			"bufferView":15,
			"componentType":5126,
			"count":906,
			"max":[
				0.09635497629642487,
				0.28415510058403015,
				0.2960207462310791
			],
			"min":[
				-0.16805846989154816,
				0.22849825024604797,
				-0.03647744655609131
			],
			"type":"VEC3"
		},
		{
			"bufferView":16,
			"componentType":5126,
			"count":906,
			"type":"VEC3"
		},
		{
			"bufferView":17,
			"componentType":5123,
			"count":4212,
			"type":"SCALAR"
		},
		{
			"bufferView":18,
			"componentType":5126,
			"count":241,
			"max":[
				0.1465972661972046,
				0.4971257150173187,
				0.32471364736557007
			],
			"min":[
				-0.1913391798734665,
				0.2908876836299896,
				0.09197479486465454
			],
			"type":"VEC3"
		},
		{
			"bufferView":19,
			"componentType":5126,
			"count":241,
			"type":"VEC3"
		},
		{
			"bufferView":20,
			"componentType":5123,
			"count":657,
			"type":"SCALAR"
		},
		{
			"bufferView":21,
			"componentType":5126,
			"count":1116,
			"max":[
				0.14679482579231262,
				0.49064901471138,
				0.29877620935440063
			],
			"min":[
				-0.19686298072338104,
				0.34613046050071716,
				0.09502199292182922
			],
			"type":"VEC3"
		},
		{
			"bufferView":22,
			"componentType":5126,
			"count":1116,
			"type":"VEC3"
		},
		{
			"bufferView":23,
			"componentType":5123,
			"count":5928,
			"type":"SCALAR"
		},
		{
			"bufferView":24,
			"componentType":5126,
			"count":160,
			"max":[
				0.09448814392089844,
				0.47954490780830383,
				0.2815806269645691
			],
			"min":[
				-0.16426299512386322,
				0.41878560185432434,
				0.16387870907783508
			],
			"type":"VEC3"
		},
		{
			"bufferView":25,
			"componentType":5126,
			"count":160,
			"type":"VEC3"
		},
		{
			"bufferView":26,
			"componentType":5123,
			"count":642,
			"type":"SCALAR"
		}
	],
	"bufferViews":[
		{
			"buffer":0,
			"byteLength":126492,
			"byteOffset":0,
			"target":34962
		},
		{
			"buffer":0,
			"byteLength":126492,
			"byteOffset":126492,
			"target":34962
		},
		{
			"buffer":0,
			"byteLength":120432,
			"byteOffset":252984,
			"target":34963
		},
		{
			"buffer":0,
			"byteLength":17148,
			"byteOffset":373416,
			"target":34962
		},
		{
			"buffer":0,
			"byteLength":17148,
			"byteOffset":390564,
			"target":34962
		},
		{
			"buffer":0,
			"byteLength":15492,
			"byteOffset":407712,
			"target":34963
		},
		{
			"buffer":0,
			"byteLength":1908,
			"byteOffset":423204,
			"target":34962
		},
		{
			"buffer":0,
			"byteLength":1908,
			"byteOffset":425112,
			"target":34962
		},
		{
			"buffer":0,
			"byteLength":846,
			"byteOffset":427020,
			"target":34963
		},
		{
			"buffer":0,
			"byteLength":1668,
			"byteOffset":427868,
			"target":34962
		},
		{
			"buffer":0,
			"byteLength":1668,
			"byteOffset":429536,
			"target":34962
		},
		{
			"buffer":0,
			"byteLength":702,
			"byteOffset":431204,
			"target":34963
		},
		{
			"buffer":0,
			"byteLength":28512,
			"byteOffset":431908,
			"target":34962
		},
		{
			"buffer":0,
			"byteLength":28512,
			"byteOffset":460420,
			"target":34962
		},
		{
			"buffer":0,
			"byteLength":25902,
			"byteOffset":488932,
			"target":34963
		},
		{
			"buffer":0,
			"byteLength":10872,
			"byteOffset":514836,
			"target":34962
		},
		{
			"buffer":0,
			"byteLength":10872,
			"byteOffset":525708,
			"target":34962
		},
		{
			"buffer":0,
			"byteLength":8424,
			"byteOffset":536580,
			"target":34963
		},
		{
			"buffer":0,
			"byteLength":2892,
			"byteOffset":545004,
			"target":34962
		},
		{
			"buffer":0,
			"byteLength":2892,
			"byteOffset":547896,
			"target":34962
		},
		{
			"buffer":0,
			"byteLength":1314,
			"byteOffset":550788,
			"target":34963
		},
		{
			"buffer":0,
			"byteLength":13392,
			"byteOffset":552104,
			"target":34962
		},
		{
			"buffer":0,
			"byteLength":13392,
			"byteOffset":565496,
			"target":34962
		},
		{
			"buffer":0,
			"byteLength":11856,
			"byteOffset":578888,
			"target":34963
		},
		{
			"buffer":0,
			"byteLength":1920,
			"byteOffset":590744,
			"target":34962
		},
		{
			"buffer":0,
			"byteLength":1920,
			"byteOffset":592664,
			"target":34962
		},
		{
			"buffer":0,
			"byteLength":1284,
			"byteOffset":594584,
			"target":34963
		}
	],
	"buffers":[
		{
			"byteLength":595868,
			"uri":"data:application/octet-stream;base64,"
		}
	]
}
