{
	"asset":{
		"generator":"Khronos glTF Blender I/O v3.6.27",
		"version":"2.0"
	},
	"scene":0,
	"scenes":[
		{
			"name":"Scene",
			"nodes":[
				0
			]
		}
	],
	"nodes":[
		{
			"mesh":0,
			"name":"bottom",
			"rotation":[
				0,
				0,
				1,
				4.371138828673793e-08
			]
		}
	],
	"materials":[
		{
			"doubleSided":true,
			"name":"pokeballWhite",
			"pbrMetallicRoughness":{
				"baseColorFactor":[
					0.8000000715255737,
					0.8000000715255737,
					0.8000000715255737,
					1
				],
				"metallicFactor":0,
				"roughnessFactor":0.5
			}
		},
		{
			"doubleSided":true,
			"name":"pokeballBlack",
			"pbrMetallicRoughness":{
				"baseColorFactor":[
					0.023648664355278015,
					0,
					0.012579076923429966,
					1
				],
				"metallicFactor":0,
				"roughnessFactor":0.5
			}
		},
		{
			"doubleSided":true,
			"name":"pokeballRed",
			"pbrMetallicRoughness":{
				"baseColorFactor":[
					0.8000000715255737,
					0,
					0.05233706161379814,
					1
				],
				"metallicFactor":0,
				"roughnessFactor":0.5
			}
		}
	],
	"meshes":[
		{
			"name":"Sphere.009",
			"primitives":[
				{
					"attributes":{
						"POSITION":0,
						"NORMAL":1
					},
					"indices":2,
					"material":0
				},
				{
					"attributes":{
						"POSITION":3,
						"NORMAL":4
					},
					"indices":5,
					"material":1
				},
				{
					"attributes":{
						"POSITION":6,
						"NORMAL":7
					},
					"indices":8,
					"material":2
				}
			]
		}
	],
	"accessors":[
		{
			"bufferView":0,
			"componentType":5126,
			"count":666,
			"max":[
				0.997203528881073,
				1,
				0.9972036480903625
			],
			"min":[
				-0.997203528881073,
				-0.24260573089122772,
				-1.0088610649108887
			],
			"type":"VEC3"
		},
		{
			"bufferView":1,
			"componentType":5126,
			"count":666,
			"type":"VEC3"
		},
		{
			"bufferView":2,
			"componentType":5123,
			"count":3150,
			"type":"SCALAR"
		},
		{
			"bufferView":3,
			"componentType":5126,
			"count":114,
			"max":[
				0.9524298310279846,
				0.36534103751182556,
				0.9524297714233398
			],
			"min":[
				-0.9524297118186951,
				-0.36534103751182556,
				-0.8801724314689636
			],
			"type":"VEC3"
		},
		{
			"bufferView":4,
			"componentType":5126,
			"count":114,
			"type":"VEC3"
		},
		{
			"bufferView":5,
			"componentType":5123,
			"count":348,
			"type":"SCALAR"
		},
		{
			"bufferView":6,
			"componentType":5126,
			"count":539,
			"max":[
				0.997203528881073,
				-0.07473009824752808,
				0.9972036480903625
			],
			"min":[
				-0.997203528881073,
				-1,
				-0.9295817613601685
			],
			"type":"VEC3"
		},
		{
			"bufferView":7,
			"componentType":5126,
			"count":539,
			"type":"VEC3"
		},
		{
			"bufferView":8,
			"componentType":5123,
			"count":2772,
			"type":"SCALAR"
		}
	],
	"bufferViews":[
		{
			"buffer":0,
			"byteLength":7992,
			"byteOffset":0,
			"target":34962
		},
		{
			"buffer":0,
			"byteLength":7992,
			"byteOffset":7992,
			"target":34962
		},
		{
			"buffer":0,
			"byteLength":6300,
			"byteOffset":15984,
			"target":34963
		},
		{
			"buffer":0,
			"byteLength":1368,
			"byteOffset":22284,
			"target":34962
		},
		{
			"buffer":0,
			"byteLength":1368,
			"byteOffset":23652,
			"target":34962
		},
		{
			"buffer":0,
			"byteLength":696,
			"byteOffset":25020,
			"target":34963
		},
		{
			"buffer":0,
			"byteLength":6468,
			"byteOffset":25716,
			"target":34962
		},
		{
			"buffer":0,
			"byteLength":6468,
			"byteOffset":32184,
			"target":34962
		},
		{
			"buffer":0,
			"byteLength":5544,
			"byteOffset":38652,
			"target":34963
		}
	],
	"buffers":[
		{
			"byteLength":44196,
			"uri":"data:application/octet-stream;base64,"
		}
	]
}
