{
	"asset":{
		"generator":"Khronos glTF Blender I/O v3.5.30",
		"version":"2.0"
	},
	"scene":0,
	"scenes":[
		{
			"name":"Scene",
			"nodes":[
				0
			]
		}
	],
	"nodes":[
		{
			"mesh":0,
			"name":"Squirtle",
			"scale":[
				20,
				20,
				20
			],
			"translation":[
				0,
				0,
				0
			]
		}
	],
	"materials":[
		{
			"doubleSided":true,
			"name":"mat2",
			"pbrMetallicRoughness":{
				"baseColorTexture":{
					"index":0
				},
				"metallicFactor":0,
				"roughnessFactor":0.5
			}
		},
		{
			"doubleSided":true,
			"name":"mat1",
			"pbrMetallicRoughness":{
				"baseColorTexture":{
					"index":1
				},
				"metallicFactor":0,
				"roughnessFactor":0.5
			}
		},
		{
			"doubleSided":true,
			"name":"Material",
			"pbrMetallicRoughness":{
				"baseColorFactor":[
					0.800000011920929,
					0.800000011920929,
					0.800000011920929,
					1
				],
				"metallicFactor":0,
				"roughnessFactor":0.4000000059604645
			}
		}
	],
	"meshes":[
		{
			"name":"Sketchup",
			"primitives":[
				{
					"attributes":{
						"POSITION":0,
						"TEXCOORD_0":1,
						"NORMAL":2
					},
					"indices":3,
					"material":0
				},
				{
					"attributes":{
						"POSITION":4,
						"TEXCOORD_0":5,
						"NORMAL":6
					},
					"indices":7,
					"material":1
				},
				{
					"attributes":{
						"POSITION":8,
						"TEXCOORD_0":9,
						"NORMAL":10
					},
					"indices":11,
					"material":2
				}
			]
		}
	],
	"textures":[
		{
			"sampler":0,
			"source":0
		},
		{
			"sampler":0,
			"source":1
		}
	],
	"images":[
		{
			"bufferView":4,
			"mimeType":"image/png",
			"name":"ZenigamE"
		},
		{
			"bufferView":9,
			"mimeType":"image/png",
			"name":"ZenigamD"
		}
	],
	"accessors":[
		{
			"bufferView":0,
			"componentType":5126,
			"count":60,
			"max":[
				0.023599807173013687,
				0.04805518686771393,
				0.04706834629178047
			],
			"min":[
				-0.023599820211529732,
				0.024449951946735382,
				0.031193140894174576
			],
			"type":"VEC3"
		},
		{
			"bufferView":1,
			"componentType":5126,
			"count":60,
			"type":"VEC2"
		},
		{
			"bufferView":2,
			"componentType":5126,
			"count":60,
			"type":"VEC3"
		},
		{
			"bufferView":3,
			"componentType":5123,
			"count":240,
			"type":"SCALAR"
		},
		{
			"bufferView":5,
			"componentType":5126,
			"count":1039,
			"max":[
				0.040461041033267975,
				0.05911050736904144,
				0.04990516975522041
			],
			"min":[
				-0.04046102613210678,
				-0.05381283164024353,
				-0.07463410496711731
			],
			"type":"VEC3"
		},
		{
			"bufferView":6,
			"componentType":5126,
			"count":1039,
			"type":"VEC2"
		},
		{
			"bufferView":7,
			"componentType":5126,
			"count":1039,
			"type":"VEC3"
		},
		{
			"bufferView":8,
			"componentType":5123,
			"count":4509,
			"type":"SCALAR"
		},
		{
			"bufferView":10,
			"componentType":5126,
			"count":18,
			"max":[
				0.0027901448775082827,
				-0.03262392431497574,
				-0.004404450301080942
			],
			"min":[
				-0.0027901337016373873,
				-0.03887453302741051,
				-0.026170242577791214
			],
			"type":"VEC3"
		},
		{
			"bufferView":11,
			"componentType":5126,
			"count":18,
			"type":"VEC2"
		},
		{
			"bufferView":12,
			"componentType":5126,
			"count":18,
			"type":"VEC3"
		},
		{
			"bufferView":13,
			"componentType":5123,
			"count":30,
			"type":"SCALAR"
		}
	],
	"bufferViews":[
		{
			"buffer":0,
			"byteLength":720,
			"byteOffset":0,
			"target":34962
		},
		{
			"buffer":0,
			"byteLength":480,
			"byteOffset":720,
			"target":34962
		},
		{
			"buffer":0,
			"byteLength":720,
			"byteOffset":1200,
			"target":34962
		},
		{
			"buffer":0,
			"byteLength":480,
			"byteOffset":1920,
			"target":34963
		},
		{
			"buffer":0,
			"byteLength":14109,
			"byteOffset":2400
		},
		{
			"buffer":0,
			"byteLength":12468,
			"byteOffset":16512,
			"target":34962
		},
		{
			"buffer":0,
			"byteLength":8312,
			"byteOffset":28980,
			"target":34962
		},
		{
			"buffer":0,
			"byteLength":12468,
			"byteOffset":37292,
			"target":34962
		},
		{
			"buffer":0,
			"byteLength":9018,
			"byteOffset":49760,
			"target":34963
		},
		{
			"buffer":0,
			"byteLength":48936,
			"byteOffset":58780
		},
		{
			"buffer":0,
			"byteLength":216,
			"byteOffset":107716,
			"target":34962
		},
		{
			"buffer":0,
			"byteLength":144,
			"byteOffset":107932,
			"target":34962
		},
		{
			"buffer":0,
			"byteLength":216,
			"byteOffset":108076,
			"target":34962
		},
		{
			"buffer":0,
			"byteLength":60,
			"byteOffset":108292,
			"target":34963
		}
	],
	"samplers":[
		{
			"magFilter":9729,
			"minFilter":9987
		}
	],
	"buffers":[
		{
			"byteLength":108352,
			"uri":"data:application/octet-stream;base64,"
		}
	]
}
